/* XPM */
static char * player_a[] = {
/* columns rows colors chars-per-pixel */
"32 32 185 2 ",
"   c #040002",
".  c #00000C",
"X  c #0B0001",
"o  c #3B0E0A",
"O  c #3B120E",
"+  c #3E1207",
"@  c #3B0F13",
"#  c #370E14",
"$  c #211018",
"%  c #291E1C",
"&  c #3D1113",
"*  c #3D131A",
"=  c #37131F",
"-  c #2A2110",
";  c #2A1E22",
":  c #3C1323",
">  c #3B1B23",
",  c #361D2A",
"<  c #3B2238",
"1  c #3A3C35",
"2  c #3B3B3C",
"3  c #383A3C",
"4  c #410D0F",
"5  c #47160F",
"6  c #400F12",
"7  c #410D19",
"8  c #411312",
"9  c #4B1713",
"0  c #43161B",
"q  c #561F19",
"w  c #4A210F",
"e  c #5A260C",
"r  c #522314",
"t  c #5C2414",
"y  c #54241A",
"u  c #5D2419",
"i  c #5D281C",
"p  c #592A18",
"a  c #6F2E13",
"s  c #622818",
"d  c #6D301B",
"f  c #74321A",
"g  c #411C23",
"h  c #563B20",
"j  c #452031",
"k  c #453A38",
"l  c #7E4C02",
"z  c #7E5005",
"x  c #7C5710",
"c  c #5A4B2C",
"v  c #4D4530",
"b  c #5A4938",
"n  c #624825",
"m  c #7D5A22",
"M  c #3A3C44",
"N  c #3B3E4D",
"B  c #483D41",
"V  c #3C4043",
"C  c #444444",
"Z  c #464549",
"A  c #4D4D4D",
"S  c #51514D",
"D  c #4E4E50",
"F  c #525252",
"G  c #5C5C5C",
"H  c #595A55",
"J  c #755540",
"K  c #625F56",
"L  c #5E6158",
"P  c #5F5F61",
"I  c #615F60",
"U  c #5B616A",
"Y  c #626262",
"T  c #636269",
"R  c #6D6D6D",
"E  c #686A69",
"W  c #7A756E",
"Q  c #6F6F71",
"!  c #796F70",
"~  c #727372",
"^  c #777973",
"/  c #797975",
"(  c #76767B",
")  c #7D7D7D",
"_  c #787879",
"`  c #6A7378",
"'  c #873E1B",
"]  c #854C03",
"[  c #894E02",
"{  c #864D0A",
"}  c #8B4D09",
"|  c #8C4508",
" . c #924B07",
".. c #835202",
"X. c #895204",
"o. c #86540A",
"O. c #8E451F",
"+. c #8C4B15",
"@. c #91471F",
"#. c #875617",
"$. c #975B12",
"%. c #A35A14",
"&. c #9A6100",
"*. c #BA6B0F",
"=. c #BE7519",
"-. c #B96817",
";. c #8D4523",
":. c #864C22",
">. c #8D4A24",
",. c #8E462A",
"<. c #8C492A",
"1. c #874427",
"2. c #904725",
"3. c #914924",
"4. c #924C2A",
"5. c #944828",
"6. c #845424",
"7. c #8F5027",
"8. c #84522B",
"9. c #965428",
"0. c #904A30",
"q. c #9A5131",
"w. c #9D6029",
"e. c #AB6827",
"r. c #BA712D",
"t. c #C06715",
"y. c #C07019",
"u. c #DB7B0A",
"i. c #CD7C20",
"p. c #D87F23",
"a. c #876F4D",
"s. c #866D57",
"d. c #B37B4D",
"f. c #B97A4D",
"g. c #A67F58",
"h. c #AB7D57",
"j. c #B47C51",
"k. c #807768",
"l. c #D3870F",
"z. c #DD800A",
"x. c #CE8819",
"c. c #D5831A",
"v. c #DD821B",
"b. c #D98117",
"n. c #CF9A32",
"m. c #D39B39",
"M. c #BF895B",
"N. c #80817C",
"B. c #AF8160",
"V. c #B88361",
"C. c #C1895A",
"Z. c #FFBB4E",
"A. c #FABE51",
"S. c #D9A575",
"D. c #DBAA75",
"F. c #D7AE7A",
"G. c #DCAA7A",
"H. c #DCB276",
"J. c #E2AC7E",
"K. c #E0B07F",
"L. c #FCC14A",
"P. c #F2C34D",
"I. c #757682",
"U. c #73768C",
"Y. c #7F7F81",
"T. c #5E97E9",
"R. c #5E94F6",
"E. c #818181",
"W. c #818181",
"Q. c #A5A5A3",
"!. c #AAA9AB",
"~. c #A7A9A8",
"^. c #E6BF96",
"/. c #E3B788",
"(. c #EAC39A",
"). c #F4CE9D",
"_. c #F5D49B",
"`. c #F6DBA4",
"'. c #FEDEA9",
"]. c #FCD8A4",
"[. c #FDDCB9",
"{. c #FDE2A6",
"}. c #FDE2AA",
"|. c #F7E1A5",
" X c #FFE4B1",
/* pixels */
"F A C C C C C C C C R R ) ) E R R R R R A F C C A S A S ) k.E F ",
"Y._ R Q Q Q F D C C & @ 6 8 8 6 & & & O Z C F F C C ) W.Q ~ I Z ",
") _ R R R R F A C C # 7 7 & & O O O O 4 C C F S A C ) W.R R H C ",
") _ R ~ R R F A : 5 >.,.4.5.0.s u u u t 8 # * O < C ) ) R R H C ",
"~ R R R F F C C * & ;.3.2.;.<.t t t t t 5 & 8 O j W.R R C C F R ",
"R R R E F F : : ' ,.>.3.3.@.3.1.<.<.<.<.d i u O > ) ~ R C C F E ",
"F F F A C C 9 # >.<.3.3.3.;.;.O.3.3.3.3.a t t + g E R R ~ R Y A ",
"C C C C C C O @ i i 4.O.4.;.;.>.;.3.4.;.;.2.@.s t # @ E F A A C ",
"C C C C C C : : r u 1.q.7.>.9.>.q.>.<.4.,.1.<.i q & * R A F A A ",
"C C C C C C ) ) = & t u ^.}.}.K.V.p i 4.f t t r t 8 & R F F A C ",
") ) ) ) F F R R o & e s (.`.`.H.V.u t 3.a t t t y & & A C C G ) ",
") ) ) ) F F ~ E j.f.[.{.-   X [._.G.G.t 9 & & r r & & F C C Y ) ",
") _ E E ~ ~ F F d.d._.].;     {.).F./.y r i p q e > , C W.W._ R ",
"F Y R R F F C A d.d.F.D.%     `.'.{.}.0 B.S.D.w , F C C ~ ~ Y F ",
"F G R R F F C C d.d.H.S.$ .   }. X{.}.& g.J.S.0 g F C C ~ Q G F ",
"A G ~ R A A C A d.f.}.|.}.}.}.}.{.}.}.S.M.j.j.F F A C 2 ~ ~ Y F ",
"C C C C C C W.) g.h.'.'.'.'.'.'.'.'.}.G.C.d.d.F F F C C C C A F ",
"C C C C C C ) ) k./ h.d.d.j.j.j.j.j.j.d.9.{ { F F A C C C C A D ",
"C F R R ) W.( _ ~.!.W ^ m | ] X.&.b.p.l n.A.L.C C C C C C C H ) ",
"A F H F _ _ ^ _ !.~.! ) x ..l  .%.z.b.+.m.A.P.Y A A Y Y G H G Y ",
"F A C C R R ) ) Q.!.N.U.8.{ $.o.%.c.x.} m.Z.L.) H F ) ) R R G F ",
"F A C C ~ R / W / / ~.!.T.T.R.1 M 1 k X.=.b.c.X.:.F ) ) R R G A ",
"C C C C F F / ( F F U.I.#...6.U a.v.l.` E K L 2 V C R ~ W.) ) ~ ",
"C C C C F F / ( F F I.^ #.+.[ T s.z.l.~ T I U 1 N C R R ) ) _ R ",
"C C C C C C ( ( A C C C c n c S J *.-.H S S S F A F C C ) W._ R ",
"C C C C C C ^ ^ A A A A Z 2 1 3 v { } 2 2 3 2 F F F A A ) ) ~ Y ",
"F F F F C C ) ) R R R ~ 8.l ] M 1 1 V 1 F F F F C C ) ) R R G C ",
"F F F F C C ) ) R R R R 6.X.X.k 3 M 2 1 F F F A C C ) ) R R H C ",
"R R R R W.) E ~ ) ) A F b k h y.r.w.e.1 C 2 ~ ~ ~ R R ~ W.) _ R ",
"R R R R W.) R _ W.) A A B M k u.i.e.t.1 C C R R ~ E R R ) ) _ ~ ",
"R ~ ) ) H H G G Y Y A A :...o.X.z [ ] } A A F F R ) _ ) Y Y Y G ",
"R ) ) ) C C F F F F C C 1. .| ] ] [ ..} F A A C R ) ) ) F F F F "
};
