/* XPM */
static char * player_exit[] = {
"16 16 2 1",
"0 c #ffffff",
"1 c #000000",
"0000000000000000",
"0000000000000000",
"0011111000000000",
"0010000100000000",
"0010000100000000",
"0011111000000000",
"0010000000000000",
"0010000011111100",
"0010000010000000",
"0010000010000000",
"0000000011111100",
"0000000010000000",
"0000000010000000",
"0000000011111100",
"0000000000000000",
"0000000000000000"
};