/* XPM */
static char *_57d879adac046d88b7a77f86b273795aFFzqVnvJwXllqht[] = {
/* columns rows colors chars-per-pixel */
"32 32 170 2 ",
"   c #020103",
".  c #000009",
"X  c #3B0E0F",
"o  c #3E1209",
"O  c #3A0F12",
"+  c #3D1213",
"@  c #3C131A",
"#  c #361415",
"$  c #281416",
"%  c #3C1728",
"&  c #2D2526",
"*  c #3B3C33",
"=  c #3E373E",
"-  c #353B3C",
";  c #3B3D3C",
":  c #363732",
">  c #400F0A",
",  c #40110D",
"<  c #48180A",
"1  c #401313",
"2  c #431419",
"3  c #481B18",
"4  c #4C1B14",
"5  c #5D1F12",
"6  c #5C240D",
"7  c #4B2019",
"8  c #562517",
"9  c #5C2315",
"0  c #5F2812",
"q  c #5C261A",
"w  c #5C2A1C",
"e  c #62230A",
"r  c #612513",
"t  c #612814",
"y  c #7D3A1F",
"u  c #552620",
"i  c #533F26",
"p  c #433A33",
"a  c #6E392B",
"s  c #753B27",
"d  c #7F4F06",
"f  c #7E5100",
"g  c #774C1F",
"h  c #794A14",
"j  c #7A5413",
"k  c #4C412F",
"l  c #7C4D24",
"z  c #3B3B41",
"x  c #3A3B4C",
"c  c #423B45",
"v  c #523F6C",
"b  c #3D4341",
"n  c #444444",
"m  c #464648",
"M  c #4D4D4D",
"N  c #50504E",
"B  c #4F4F51",
"V  c #525252",
"C  c #50575D",
"Z  c #5C5C5C",
"A  c #5A5657",
"S  c #5E6457",
"D  c #7A6552",
"F  c #786547",
"G  c #51406C",
"H  c #5F5F61",
"J  c #605B71",
"K  c #5C636D",
"L  c #636363",
"P  c #686866",
"I  c #6D6D6D",
"U  c #656368",
"Y  c #756D6A",
"T  c #7B726C",
"R  c #7E7264",
"E  c #6F6F71",
"W  c #65657C",
"Q  c #686878",
"!  c #6F7279",
"~  c #6F7D7E",
"^  c #737373",
"/  c #7B7775",
"(  c #737A76",
")  c #797976",
"_  c #75767B",
"`  c #7C767C",
"'  c #74797A",
"]  c #7D7D7D",
"[  c #854D02",
"{  c #8B4C04",
"}  c #854B09",
"|  c #8A4C0C",
" . c #8D4300",
".. c #914F03",
"X. c #845207",
"o. c #87510C",
"O. c #8A5208",
"+. c #8B4B14",
"@. c #8D441E",
"#. c #8C491E",
"$. c #944E10",
"%. c #91461E",
"&. c #91481F",
"*. c #875A1F",
"=. c #8B5917",
"-. c #B6661D",
";. c #8E4623",
":. c #8E4925",
">. c #8B4A29",
",. c #904624",
"<. c #924824",
"1. c #914A2A",
"2. c #825E2C",
"3. c #865523",
"4. c #925C3E",
"5. c #9F6D28",
"6. c #A66E23",
"7. c #B66820",
"8. c #D37F1C",
"9. c #836648",
"0. c #816951",
"q. c #9B6F52",
"w. c #9E7154",
"e. c #B0774C",
"r. c #B47B4B",
"t. c #BB7C4D",
"y. c #B37A45",
"u. c #BC7655",
"i. c #B47B53",
"p. c #B9785A",
"a. c #BB7D55",
"s. c #817674",
"d. c #CF8313",
"f. c #D88616",
"g. c #DD8811",
"h. c #D38418",
"j. c #DA841D",
"k. c #D18317",
"l. c #94885E",
"z. c #948665",
"x. c #F6BB57",
"c. c #DDAB7B",
"v. c #D9A877",
"b. c #E0AA7B",
"n. c #F7C459",
"m. c #7E7C81",
"M. c #747782",
"N. c #818182",
"B. c #818181",
"V. c #868789",
"C. c #878988",
"Z. c #8F8F8D",
"A. c #8D9085",
"S. c #AAA09E",
"D. c #9FA6AC",
"F. c #ACACAC",
"G. c #A6AAAB",
"H. c #A8ACB5",
"J. c #D9AD86",
"K. c #E8BE8C",
"L. c #E0BF94",
"P. c #E9C18D",
"I. c #FBDF9E",
"U. c #FDDEA5",
"Y. c #FEDFAA",
"T. c #FCE2A2",
"R. c #FEE1A9",
"E. c #FDE1AB",
"W. c #F7E3B0",
"Q. c #F9E3B1",
/* pixels */
"V M n n n n n n n n I I ] ] P I I I I I M V n n M N M N ] z.P V ",
"m._ I E E E V B n n n n n n n n V V B V m n V V n n ] N.E ^ K m ",
"] ) I I I I V M n n n O X 1 + + + + 2 + + 1 @ V m n ] N.I I A n ",
"] ) I ^ I I V m n n n @ + 2 + + + + + + + o + V m n ] ] I I A n ",
"^ I I I V V n n + + X 5 u 9 q q q q #.:.>.<.;.+ @ v I I n n V I ",
"I I I P V V m V + O + w 9 q q q q q ;.<.;.:.>.@ + G ^ I n n V P ",
"V V V M n n N.] + > 9 >.,.<.;.;.;.;.<.;.<.1.,.;.;.0 2 I ^ I L M ",
"n n n n n n + 2 8 e <.;.:.;.<.@.<.;.:.;.;.@.,.9 9 7 # P V M M n ",
"n n n n n n + 1 9 e <.1.%.<.;.1.@.<.;.@.,.;.1.9 9 3 + I M V m m ",
"n n n n n n + + w 9 0 ;.%.<.t 6 c.c.Y.E.J.r t + , M I I V V m n ",
"] ] ] ] V V + 1 9 0 9 1.%.&.q 9 c.c.R.I.L.9 9 O + n V M n n Z ] ",
"] ] ] ] V V + 1 9 9 4 s y y 4.4.K.P.z.l.z.q.w.a a n M V n n L ] ",
"] ) P P ^ ^ + 1 9 9 + 8 9 9 b.c.U.R.    & T.T.t.y.V n n N.N.) I ",
"V L I I V V + 1 9 w 2 9 6 q b.v.R.R.  . & T.T.t.y.V n n ^ ^ L V ",
"V Z I I V V n n O % v.< , , R.R.R.R.    $ c.c.i.i.V n n ^ I Z V ",
"M Z ^ I M M n m ] N.i.v.c.c.U.U.R.R.E.W.Q.R.Y.a.i.M n ; ^ ^ L V ",
"n n n n n n N.] I I p.c.c.c.R.U.E.T.Y.Y.Y.Y.E.u.u.V n n n n M V ",
"n n n n n n ] ] I I +.y.e.r.i.r.s.` _ _ _ ^ ] ` m.M n n n n M M ",
"n V I I ] N.I ^ ] ] } r.i.a.i.t.' _ ) ) ) ) ' ] ) n n n n n A ] ",
"M V A V ) ) I P P P x.} [ o.j.f.| [ [ [ *.) ] F.G.A.] L Z A Z P ",
"V M n n I I I P V V n.[ [ [ j.j.{ { } | 3.) ] F.F.Z.] ] I I Z V ",
"V M n n ^ I I P X.j k.{ } | : * z ; ) ~ ] G.G.) ] ) m.] I I Z M ",
"n n n n V V V V k i 9.F 0.D 6.5.A C 2.2.9.C.V.I M Q ] ^ m.] ] ^ ",
"n n n n V V V V ; ; P _ Y T k.h.K J [ [ o.) ' ^ M W ) I ] ] ) I ",
"n n n n n n I P - ; S ! Y _ d.g.S U o.} =.' M.V M Q M.n ] N.) I ",
"n n n n n n I ) M M z ; * b {  .H.G./ ] Y P V V V W ) M ] ] ^ P ",
"V V V V n n ] ] I I x - c c =.3.S.D.R T Y V V V n W _ ] I I Z n ",
"V V V V n n ] ] I I I x p ; / ' ' M.{ | h V V M n n ] ] I I A n ",
"I I I I N.] P ^ ] ] M * z ; ( ' ( ' | +.l ; ^ ^ ^ I I ^ N.] ) I ",
"I I I I N.] I ) N.] M ; ; ; 7.-.8.h.p = n n I I ^ P I I ] ] ) ^ ",
"I ^ ] ] A A Z Z P L m } d X.o.} O.| { $.l m V V I ] ) ] L L L Z ",
"I ] ] ] n n V V V V n d f [ } [ [ [ ..| g M m n I ] ] ] V V V V "
};
