/* XPM */
static char * exit[] = {
/* columns rows colors chars-per-pixel */
"32 32 102 2 ",
"   c #1F1D26",
".  c #1E1D2A",
"X  c #211E27",
"o  c #211E2A",
"O  c #1D2027",
"+  c #202020",
"@  c #22212A",
"#  c #272530",
"$  c #292631",
"%  c #413F4D",
"&  c #413F54",
"*  c #434354",
"=  c #454857",
"-  c #454559",
";  c #45495C",
":  c #494A5E",
">  c #4C4D61",
",  c #4E5366",
"<  c #525367",
"1  c #55566A",
"2  c #56596D",
"3  c #595B6E",
"4  c #575B71",
"5  c #5A5D72",
"6  c #565A7F",
"7  c #5C5D79",
"8  c #5B6174",
"9  c #5F6678",
"0  c #606277",
"q  c #606679",
"w  c #646B7D",
"e  c #525B86",
"r  c #676E81",
"t  c #6A6F83",
"y  c #667184",
"u  c #6A7285",
"i  c #6C7689",
"p  c #6D798B",
"a  c #707589",
"s  c #727A8D",
"d  c #656798",
"f  c #727F90",
"g  c #737C99",
"h  c #728194",
"j  c #798496",
"k  c #72809D",
"l  c #7B869A",
"z  c #7C899C",
"x  c #7684A1",
"c  c #7D86A4",
"v  c #7C8BA1",
"b  c #7680B1",
"n  c #7A82B1",
"m  c #00A2E8",
"M  c #73FBFD",
"N  c #80889B",
"B  c #82889E",
"V  c #81899C",
"C  c #828DA1",
"Z  c #8191A1",
"A  c #8293A3",
"S  c #8592A3",
"D  c #8192A4",
"F  c #8693A4",
"G  c #8595A4",
"H  c #8794A5",
"J  c #8596A6",
"K  c #8497A8",
"L  c #8598A9",
"P  c #849BAD",
"I  c #859FAE",
"U  c #8E9BAC",
"Y  c #8A9DAC",
"T  c #8B9EAD",
"R  c #889DAE",
"E  c #8A9DAE",
"W  c #899EAF",
"Q  c #8C9EAC",
"!  c #8E9EAE",
"~  c #919CAE",
"^  c #8392B3",
"/  c #8590B0",
"(  c #8896B3",
")  c #8993B6",
"_  c #8898B2",
"`  c #8A9CB0",
"'  c #8D9EB2",
"]  c #8BA3A5",
"[  c #8AA0AE",
"{  c #8BA1AF",
"}  c #8EA0AC",
"|  c #8FA3AC",
" . c #8DA0AE",
".. c #8DA0AF",
"X. c #8EA7AE",
"o. c #88A2B1",
"O. c #8EA1B0",
"+. c #8CA3B3",
"@. c #88A2B9",
"#. c #8BA5BE",
"$. c #90A0B0",
"%. c #95A7B5",
/* pixels */
"X X X X X X X X X X X X X X X X X X X X X X X X X X X X X X X X ",
"+ + + + + + + + + + + + + + + + + + + + + + + + + + + + + + + + ",
"@ $ * w Q U a l l l l l l l N @ @ * , z V N J +.A z Q R s i @ . ",
"X # * 9 D S 8 p s s s s s l v   X & : s s z z A f s F A q 0 o @ ",
"  $ * 8 z l 5 u p u i i i l v @ X & ; u p z z z p i l z 5 5 o X ",
"X # & 8 z N 2 u u u i i i l v   X & ; i u z z z p u l z 5 5 o @ ",
"  # & 2 p s w 8 5 5 5 5 5 p p   X & * 8 5 8 8 8 5 5 p p 2 2 o @ ",
"X # * 1 y y 3 3 2 3 3 3 u u u @ X & - 5 5 3 3 3 8 3 u y 2 5 .   ",
"X # * 8 z 5 m m m m m m c c z O X & - 2 7 m m m m m c z 8 5 o X ",
"@ @ * 8 z 5 m m M M M M l l z o X & - 5 5 m m m m m h z 5 5 @ @ ",
"@ @ * 8 z 5 m m M M M M z z z o X & - 5 5 m M M ) X.x z 5 5 @ @ ",
"@ @ * 8 z 2 m m M M M M z z z o X & - 5 5 m M M ^ #.z z 5 5 @ @ ",
"  @ * 8 z q m m M M M M z z z o X & - 5 5 m d n b x J K 8 5 @ @ ",
"X # & 9 K u m m M M ~ $.l l v o X & * 5 3 v M M m m P [ 5 5 @ @ ",
"X # & w +.t m m M M R @.l l v o X & : 2 4 ` M M m m R  .5 5 @ @ ",
"X # * w o.y m m M M '  .l l v o X & * 2 4  .M M m m R  .5 5 @ @ ",
"X @ * w o.5 m m %.] M M z z z   X & * 5 8 m m m M M z z 5 5 @ @ ",
"@ $ * w o.5 m m _ I M M z z z o X & = 4 5 m m m M M z z 5 5 @ @ ",
"@ # * w o.5 6 e / ( M M z z z o X & - 2 2 m M M M M l z 5 5 @ @ ",
"X # * q L 5 g k M M M M l l z X X & - 5 5 m M M M M z z 5 5 @ @ ",
"X # * 8 l 5 m m m m M M c c z o X & - 5 5 m M M M M z z 5 5 @ @ ",
"X # * 8 z 5 m m m m M M c c z X X & - 5 5 m M M M M z z 5 5 @ @ ",
"X # * 8 z 2 m m M M M M z z z @ X & - 2 5 m M M M M J J 4 2 @ @ ",
"X # * 8 z 5 m m M M M M l l z   X & - 5 5 m M M M M  .[ 4 4 @ @ ",
"X # * w +.y l z z z z z l l v X X & : r i z z z z l z z 5 5 @ @ ",
"X # * w R t l z z z z z l l z @ X & > y u z z z l z C z 5 5 @ @ ",
"X # * 8 l z 2 r u u u u u j z   X & - 2 5 u u u y u V z 5 5 @ @ ",
"X # * 8 z l 2 r u u u u u l z X X & - 4 2 u u u y i N z 5 5 @ @ ",
"@ @ * 8 z j 1 w w w w w w j l   o & ; < 1 w w w r t j l 1 1 @ @ ",
"@ @ % 1 i y * 2 2 3 3 3 3 u r @ @ & * * * 3 3 3 5 5 t u - * @ @ ",
"X X X X X X X X X X X X X X X X X X X X X X X X X X X X X X X X ",
"+ + + + + + + + + + + + + + + + + + + + + + + + + + + + + + + + "
};
