/* XPM */
static char * collect[] = {
"16 16 2 1",
"0 c #ffffff",
"1 c #000000",
"0000000000000000",
"0000000000000000",
"0000011111111100",
"0000100000000000",
"0001000000000000",
"0001000000000000",
"0010000000000000",
"0010000000000000",
"0010000000000000",
"0010000000000000",
"0001000000000000",
"0001000000000000",
"0000100000000000",
"0000011111111100",
"0000000000000000",
"0000000000000000"
};