/* XPM */
static char * player[] = {
/* columns rows colors chars-per-pixel */
"32 32 207 2 ",
"   c #030201",
".  c #040107",
"X  c #1F1F1D",
"o  c #380C0D",
"O  c #3A110D",
"+  c #3A0E14",
"@  c #3D1313",
"#  c #3E1118",
"$  c #261C1D",
"%  c #2F2212",
"&  c #3C1F31",
"*  c #312A20",
"=  c #3C3C3C",
"-  c #393938",
";  c #4B190A",
":  c #511C0D",
">  c #410E1D",
",  c #411112",
"<  c #42121C",
"1  c #4E1D17",
"2  c #581D17",
"3  c #5D250B",
"4  c #5C2414",
"5  c #5E2418",
"6  c #5D281A",
"7  c #582616",
"8  c #64260E",
"9  c #642914",
"0  c #652617",
"q  c #74341C",
"w  c #421B30",
"e  c #5E2E22",
"r  c #423E3C",
"t  c #493B36",
"y  c #503E35",
"u  c #472F30",
"i  c #783620",
"p  c #3D423E",
"a  c #3E4234",
"s  c #7E4E04",
"d  c #7B5308",
"f  c #6A461A",
"g  c #694717",
"h  c #7A4C1A",
"j  c #48412E",
"k  c #4B4233",
"l  c #48453D",
"z  c #514039",
"x  c #73512A",
"c  c #3E3E43",
"v  c #393B46",
"b  c #493744",
"n  c #423F5E",
"m  c #3C444A",
"M  c #444443",
"N  c #454549",
"B  c #4D4D4D",
"V  c #4C404A",
"C  c #50504E",
"Z  c #4E4E50",
"A  c #525252",
"S  c #5C5C5C",
"D  c #504845",
"F  c #6D5048",
"G  c #675E5D",
"H  c #62635D",
"J  c #626552",
"K  c #7C6C5A",
"L  c #786449",
"P  c #4B476B",
"I  c #5E5D61",
"U  c #5A5F75",
"Y  c #6E5D68",
"T  c #5D6264",
"R  c #4B6562",
"E  c #626262",
"W  c #6B6866",
"Q  c #6D6D6D",
"!  c #67656A",
"~  c #6F766F",
"^  c #76766A",
"/  c #6F6F71",
"(  c #6D7674",
")  c #737373",
"_  c #767975",
"`  c #797A75",
"'  c #77767A",
"]  c #78777D",
"[  c #7C7C7C",
"{  c #797776",
"}  c #883E19",
"|  c #844C03",
" . c #8A4D05",
".. c #854E0C",
"X. c #894E0D",
"o. c #855102",
"O. c #895003",
"+. c #83510C",
"@. c #89550A",
"#. c #8B441F",
"$. c #89481B",
"%. c #834A17",
"&. c #865419",
"*. c #98520D",
"=. c #A05B18",
"-. c #A0661D",
";. c #B06612",
":. c #8D4523",
">. c #8D4923",
",. c #834529",
"<. c #8B4B28",
"1. c #914724",
"2. c #914A25",
"3. c #934929",
"4. c #95492D",
"5. c #815B2B",
"6. c #835C32",
"7. c #9A6634",
"8. c #9B672E",
"9. c #AB6D29",
"0. c #B36B2C",
"q. c #B76923",
"w. c #AE782E",
"e. c #A7753B",
"r. c #B47E39",
"t. c #A86B3F",
"y. c #C77B18",
"u. c #C67A28",
"i. c #C07534",
"p. c #9F6E4D",
"a. c #876753",
"s. c #9B6F52",
"d. c #997259",
"f. c #8A6D4D",
"g. c #AE7848",
"h. c #B97B4F",
"j. c #B67A49",
"k. c #A97D56",
"l. c #B47C52",
"z. c #B57C58",
"x. c #B97B54",
"c. c #887665",
"v. c #807379",
"b. c #AC7D73",
"n. c #C17953",
"m. c #6D807E",
"M. c #CA8617",
"N. c #D5831B",
"B. c #DA831A",
"V. c #DB8311",
"C. c #D98509",
"Z. c #E18200",
"A. c #E18018",
"S. c #D18321",
"D. c #DE8221",
"F. c #D38231",
"G. c #B6834D",
"H. c #B68454",
"J. c #BA8453",
"K. c #C4865F",
"L. c #C79668",
"P. c #DEA677",
"I. c #DDA979",
"U. c #D4A973",
"Y. c #D7A26E",
"T. c #E2AE74",
"R. c #5F7283",
"E. c #646F81",
"W. c #7B7984",
"Q. c #846A83",
"!. c #5B96E8",
"~. c #5994FA",
"^. c #668EED",
"/. c #6F8CEA",
"(. c #6191ED",
"). c #6990ED",
"_. c #668DF6",
"`. c #818181",
"'. c #8B8B8B",
"]. c #939393",
"[. c gray61",
"{. c #ABABAB",
"}. c #DDB883",
"|. c #DBBC90",
" X c #DBAB83",
".X c #EABE8F",
"XX c #E6BA93",
"oX c #D7B9A1",
"OX c #DBC492",
"+X c #EED89D",
"@X c #F7DB9D",
"#X c #EDCB96",
"$X c #FBE09B",
"%X c #D5C9A3",
"&X c #DBC4B2",
"*X c #FCDCA4",
"=X c #FCDCAB",
"-X c #F4DBAD",
";X c #FFDEB1",
":X c #FDE2A5",
">X c #FFE8A7",
",X c #FFE1AA",
"<X c #FBE1A9",
"1X c #F7E0AE",
"2X c #FFE2B1",
"3X c #FAE4B0",
"4X c #F8E3B5",
/* pixels */
"A B M M M M M M M M Q Q [ [ W Q Q Q Q Q B A M M B C B C [ m.W C ",
"W.' Q / / / A Z M M M w o , @ @ @ @ @ @ @ > A A M M [ `./ ) I N ",
"[ _ Q Q Q Q A B b < o 7 9 3.:.4 0 6 0 0 5 3 o , w M [ `.Q Q S M ",
"[ _ Q ) Q Q A B b + @ 7 8 2.1.5 6 6 4 5 6 5 O < & M { [ Q Q S M ",
") Q Q Q A A O < 1 4 5 #.2.:.2.1.:.q 8 >.2.>.4 4 4 `.Q Q M M A Q ",
"Q Q Q W A A ; # 1 5 6 ,.2.3.1.:.2.q 9 <.1.$.4 e 2 { ) Q M M A W ",
"A A A B M M # , : 9 9 ,.#.#.#.>.3.q 8 :.1.2.5 9 4 Q Q Q ) Q E B ",
"M M M M M M # , i 1.1.>.} 2.:.#.1.>.1.1.1.$.<.4.,.A W Q A B B M ",
"M M M M M M # , : 9 4 XX=X2.3.1.#.L.,X,X*X*X7 8 7 A Q Q B A B B ",
"M M M M M M # @ : 4 4 |.-X$.<.>.>.L.>X3X<X4X3 6 : B Q Q A A B M ",
"[ [ [ [ k.U.:X$X,X,X;X%     -X=X,X<X1X.     2X*X2XH.l.B M M S [ ",
"[ [ [ [ k.U.,X:X@X@X>X* .   -X,X=X*X+X.     ,X@X2XH.h.A M M E [ ",
"[ _ W W ) Q.z.l..X=X,X$     Y.P.P.P. X      2X*X#XA M M `.`._ Q ",
"A E Q Q A Q.n.G.}.=X3XX     T.I.I.I. X  .   3X=X+XA M M ) ) E A ",
"A S Q Q A Y $.@.g.K.J.oX%X@X@X*X*X*X:X%XOX&XJ.x.G.A M M ) Q S A ",
"Z S ) Q B Y o. .t.x.l.#X<X<X<X<X<X<X<X<X<X=Xz.g.g.B M = ) / E A ",
"M M M M ` ` { ' _ ] v.b.l.l.l.l.l.l.l.l.l.G.X.| -.N - M M M B A ",
"M M M _ _ { { _ ~ v.m.k.h.j.h.h.h.h.l.z.z.h...X.;.t = M M M B B ",
"M { ' {.{ Q E E e.B.M.*.%. . .+.+.+. .+...&.N.M.i.v a v c p S [ ",
"B ` _ {.{ Q E E w.C.V.*.o.o...X.X.X... .O. .D.M.F.a m = = p S ! ",
"A ] ` { {.]._ { 5.| O.y.S./.~.(.(.(.!.F.D.B.o...&.9.9.O.X.o.S A ",
"A ] ` { {.]._ _ 5.+.o.M.Z.!.).^.^.^._.A.B.N.d o.h 0.0.o.d d S B ",
"M ] ` B `.'.[.[.G t t L f.s.p.J.J.l.s.a.K a.t y D f.^ y j z { ) ",
"M ] ` = _ ].{.{.! = c I E q.0.B.N.u.0.H G H = - M ) ) - c c _ Q ",
"M ] _ M v = = = l - - W E.b m r r = M R.) _ p - - = = M [ `._ Q ",
"M W.] M n N B B k j k K d.V N = = b M c.c.c.k l r c c B { [ ) ! ",
"A A A A M M ` _ 6.o.X.y.V.H T - = B T B.A.B. .| %.M [ [ Q Q S M ",
"A A A A M M ` ` 6.o.X.y.N.T G - = B G N.N.B.+.o.h M [ [ Q Q S M ",
"Q Q Q Q `.[ W ) P = = W ~ J R - = B U / { ( t = = Q Q ) `.[ _ Q ",
"Q Q Q Q `.[ Q _ P = = W ~ T T - = B T ) ) / = = r W Q Q m.[ _ ) ",
"Q ) { { S S S S F g g e.r.7.7.f f 5.8.r.r.g.f f f { _ { E E E S ",
"Q { [ { M M A A x @.| y.S.q.q.....=.q.N.B.N.+.s %.W.[ [ A A A A "
};
