/* XPM */
static char * collect[] = {
/* columns rows colors chars-per-pixel */
"32 32 166 2 ",
"   c black",
".  c #170404",
"X  c #1A0504",
"o  c #230B05",
"O  c #271006",
"+  c #2B1204",
"@  c #281109",
"#  c #321706",
"$  c #3B1A05",
"%  c #3D1E08",
"&  c #341906",
"*  c #281613",
"=  c #3F3F3F",
"-  c #451F06",
";  c #442207",
":  c #4B2807",
">  c #522A07",
",  c #5C2F08",
"<  c #5A3606",
"1  c #5F3907",
"2  c #6A3704",
"3  c #6A3804",
"4  c #774108",
"5  c #71490C",
"6  c #704115",
"7  c #444444",
"8  c #464648",
"9  c #4D4D4C",
"0  c #5F5041",
"q  c #50504E",
"w  c #4F4F51",
"e  c #525252",
"r  c #5C5C5C",
"t  c #5F5F61",
"y  c #626262",
"u  c #686866",
"i  c #6D6D6D",
"p  c #6F6F71",
"a  c #727272",
"s  c #777779",
"d  c #7D7D7D",
"f  c #8D4C07",
"g  c #8F4D08",
"h  c #914F06",
"j  c #965106",
"k  c #9D5606",
"l  c #865E11",
"z  c #AD5E08",
"x  c #946007",
"c  c #AB6509",
"v  c #B16F09",
"b  c #BB6909",
"n  c #B37708",
"m  c #B9790A",
"M  c #B2731C",
"N  c #966C25",
"B  c #C66E0B",
"V  c #CE7407",
"C  c #CF7308",
"Z  c #D27907",
"A  c #D37708",
"S  c #C1820A",
"D  c #DB820A",
"F  c #DD8B09",
"G  c #D6850C",
"H  c #DC920B",
"J  c #D68416",
"K  c #DB8D17",
"L  c #E18D0A",
"P  c #EC9D0A",
"I  c #E69C0B",
"U  c #EC9E10",
"Y  c #E39A17",
"T  c #DFB01D",
"R  c #F3A30B",
"E  c #F7AA0D",
"W  c #F8AA0B",
"Q  c #F8B30D",
"!  c #F9BA0E",
"~  c #E9A716",
"^  c #E7A910",
"/  c #ECAE10",
"(  c #F7AB10",
")  c #F8AC13",
"_  c #EDB212",
"`  c #F5BF13",
"'  c #F8B915",
"]  c #F7BA1A",
"[  c #CE9C21",
"{  c #C58535",
"}  c #DE973F",
"|  c #DD9A3F",
" . c #DBAA25",
".. c #EDAA29",
"X. c #F5B321",
"o. c #F8B221",
"O. c #F9BC25",
"+. c #E6B234",
"@. c #FABD3D",
"#. c #F7C613",
"$. c #FAC516",
"%. c #F9CB15",
"&. c #F5C718",
"*. c #F9C31D",
"=. c #FCCB1D",
"-. c #FAD31D",
";. c #EFC423",
":. c #F9C42B",
">. c #FBCE23",
",. c #FBD423",
"<. c #FAD924",
"1. c #FBDD2B",
"2. c #F6CD3F",
"3. c #FACC3B",
"4. c #FBD434",
"5. c #FAD03B",
"6. c #FBE42F",
"7. c #FCE632",
"8. c #FCE638",
"9. c #FDEA3E",
"0. c #978663",
"q. c #979077",
"w. c #EABF40",
"e. c #F2BA48",
"r. c #F7DD4E",
"t. c #FBD649",
"y. c #F1D754",
"u. c #FADB53",
"i. c #FAD05C",
"p. c #FCE140",
"a. c #FCE54B",
"s. c #FFEC55",
"d. c #FCEC5B",
"f. c #FEE45D",
"g. c #FEF75E",
"h. c #FCF257",
"j. c #FBCF69",
"k. c #F4D867",
"l. c #FCD270",
"z. c #FCEE68",
"x. c #FBE96A",
"c. c #FEF666",
"v. c #FDFC6D",
"b. c #FCE971",
"n. c #FEFF74",
"m. c #7F7F81",
"M. c #818181",
"N. c #E2C081",
"B. c #ECD196",
"V. c #FEEB8B",
"C. c #FDF383",
"Z. c #FFFF86",
"A. c #FBE597",
"S. c #FCE59A",
"D. c #FDFF93",
"F. c #FCF495",
"G. c #FEECA6",
"H. c #F6E3AC",
"J. c #E8E2B8",
"K. c #F9ECB8",
"L. c #FEF2B9",
"P. c #F1EDC3",
"I. c #FCF7C9",
"U. c #FDFBCB",
"Y. c #FEFCC4",
"T. c #FFFED2",
/* pixels */
"e 9 7 7 7 7 7 7 7 7 i i d d u i i i i i 9 e 7 7 9 q 9 q d q.u q ",
"m.s i p p p e w 7 7 7 7 7 7 7 7 e e w e 8 7 e e 7 7 d M.p a t 8 ",
"d s i i i i e 9 7 7 7 7 7 7 7 8 e e e e 7 7 e e 8 7 d M.i i r 7 ",
"d s i a i i e 8 7 7 7 7 7 7 7 8 e e e e 7 7 e e 8 7 d d i i r 7 ",
"a i i i e e 7 7 i i M.d 9 e X X X X X i i i 7 7 a M.i i 7 7 e i ",
"i i i u e e 8 e a X .     # m W L A h X X i 7 7 a d a i 7 7 e u ",
"e e e 9 7 7 M.d d . + < 1 5 [ :.U F M 0 > : o 7 y u i i a p y 9 ",
"7 7 7 7 7 7 d d u . < H I ~ r.c.*.E e.J.B z ; 7 8 e u u e 9 9 7 ",
"7 7 7 7 7 7 d d   : l X.O.] a.g.4.@.l.I.} { 6 7 9 e i i 9 e 8 8 ",
"7 7 7 7 7 7 d d   S  .d.d.1.8.9.b.G.L.T.H.B.{ . 8 9 i i e e 8 7 ",
"d d d d e e i i   P :.v.v.7.7.7.C.U.T.T.T.K.| . 9 7 e 9 7 7 r d ",
"d d d d e e a u   P ' 6.7.` F A =.7.z.T.T.K.| . e 7 9 e 7 7 y d ",
"d s u u a a e o < 2.4.<.,.Y +.w.4.,.f.U.C.b...4 - e 7 7 M.M.s i ",
"e y i i e e 7 O x v.s.=.$.J y.n.p.%.u.Y.8.1.' V 3 e 7 7 a a y e ",
"e r i i e e 7 O x h.d.u.u.Y k.D.r.$.3.V.7.1.' V 2 e 7 7 a i r e ",
"9 r a i 9 9 7 O x 6.z.U.U.o.S.T.j.) Q %.6.1.' V 2 9 7 = a a y e ",
"7 7 7 7 7 7 M.@ N U.T.U.U.o.A.T.i.) Q %.6.1.' V 2 e 7 7 7 7 9 e ",
"7 7 7 7 7 7 d * 0.T.T.U.U.o.A.U.t.( Q %.6.1.' V 2 9 7 7 7 7 9 9 ",
"7 e i i d M.i * q.T.T.T.U.o.A.U.5.E Q %.6.1.' V 2 7 7 7 7 7 r d ",
"9 e r e s s i * q.T.T.T.I.K k.Z.5.E Q %.6.1.' V 2 9 y u r r r u ",
"e 9 7 7 i i i * q.T.T.T.U.J y.n.5.( Q %.6.1.' C 2 e d d i i r e ",
"e 9 7 7 a i i u   P.F.8.6.#.Q W ! %.-.6.W R D . . e d d i i r 9 ",
"7 7 7 7 e e e e   N.k.1.<.#.! Q $.-.<.6.W R D . 9 7 i a M.d d a ",
"7 7 7 7 e e e e   B H #.%.%.%.%.<.7.7.6.W R D . 9 7 i i d d s i ",
"7 7 7 7 7 7 i u   g v ^ / _ &.-.,.,.,.>.P L c . 9 e 7 7 d M.s i ",
"7 7 7 7 7 7 i s 9 o , V Z G ;.6.*.W W E A b > . e e 9 9 d d a u ",
"e e e e 7 7 d d i i - j k c T ,.' P F m k f $ e 7 7 d d i i r 7 ",
"e e e e 7 7 d d i i i i 7 # n R F V f     e e 9 7 7 d d i i r 7 ",
"i i i i M.d u a d d 9 e 7 X & ; % $ +   7 = a a a i i a M.d s i ",
"i i i i M.d i s M.d 9 9 7 7 M.d 7 7 7 7 7 7 i i a u i i d d s a ",
"i a d d r r r r u y 8 8 u u d s r y r r 8 8 e e i d s d y y y r ",
"i d d d 7 7 e e e e 7 7 d d a a i u i i e 9 8 7 i d d d e e e e "
};
