/* XPM */
static char * exit[] = {
"16 16 2 1",
"0 c #ffffff",
"1 c #000000",
"0000000000000000",
"0000000000000000",
"0011111111111100",
"0010000000000100",
"0010000000000100",
"0010000000000100",
"0010000000000100",
"0011111111111100",
"0010000000000000",
"0010000000000000",
"0010000000000000",
"0010000000000000",
"0010000000000000",
"0011111111111100",
"0000000000000000",
"0000000000000000"
};