/* XPM */
static char * exit_open[] = {
/* columns rows colors chars-per-pixel */
"32 32 133 2 ",
"   c #1E1D25",
".  c #1F1E26",
"X  c #1F1F27",
"o  c #1D1D29",
"O  c #1F1D2A",
"+  c #211E27",
"@  c #201F27",
"#  c #211F2A",
"$  c #201E2B",
"%  c #211F2C",
"&  c #202020",
"*  c #212026",
"=  c #212028",
"-  c #222129",
";  c #22202B",
":  c #23212E",
">  c #22222E",
",  c #24222D",
"<  c #25232E",
"1  c #26242F",
"2  c #272530",
"3  c #282631",
"4  c #2A2732",
"5  c #413F54",
"6  c #413F55",
"7  c #414050",
"8  c #414352",
"9  c #424652",
"0  c #434254",
"q  c #424355",
"w  c #444355",
"e  c #444257",
"r  c #444655",
"t  c #444557",
"y  c #464557",
"u  c #454857",
"i  c #464358",
"p  c #444559",
"a  c #464459",
"s  c #454658",
"d  c #45485B",
"f  c #46495C",
"g  c #454A5D",
"h  c #4A485D",
"j  c #484B5E",
"k  c #494C5F",
"l  c #4C4D61",
"z  c #4E5366",
"x  c #525367",
"c  c #53556A",
"v  c #56586D",
"b  c #57596E",
"n  c #555A6E",
"m  c #595A6E",
"M  c #585B6E",
"N  c #585A6F",
"B  c #595A6F",
"V  c #595C6D",
"C  c #595C6F",
"Z  c #575970",
"A  c #565B71",
"S  c #565A73",
"D  c #575C70",
"F  c #595B70",
"G  c #5A5B70",
"H  c #595B72",
"J  c #5B5B73",
"K  c #5A5D70",
"L  c #5A5C71",
"P  c #5A5C73",
"I  c #595E72",
"U  c #5A5F73",
"Y  c #595B74",
"T  c #5B5D74",
"R  c #5B5D76",
"E  c #5C5D79",
"W  c #5B6076",
"Q  c #5D6276",
"!  c #5C6376",
"~  c #646B7D",
"^  c #656C7E",
"/  c #880015",
"(  c #666E81",
")  c #697083",
"_  c #6B7084",
"`  c #6A7285",
"'  c #6B7386",
"]  c #6C7386",
"[  c #697486",
"{  c #6C7487",
"}  c #6D7487",
"|  c #6D7588",
" . c #71798C",
".. c #727A8D",
"X. c #737A8D",
"o. c #737B8E",
"O. c #656798",
"+. c #7B869A",
"@. c #7C8799",
"#. c #7A849F",
"$. c #7C879D",
"%. c #7B889B",
"&. c #7A8B9B",
"*. c #7D889A",
"=. c #7E899B",
"-. c #7D889C",
";. c #7C899C",
":. c #7E899D",
">. c #7D8A9D",
",. c #7D8E9E",
"<. c #7D87A0",
"1. c #7D86A7",
"2. c #7E87A6",
"3. c #7B89A3",
"4. c #00A2E8",
"5. c #73FBFD",
"6. c #80889B",
"7. c #82889E",
"8. c #8794A5",
"9. c #859FAE",
"0. c #889DAE",
"q. c #919CAE",
"w. c #8590B0",
"e. c #8896B3",
"r. c #8898B2",
"t. c #8A9CB0",
"y. c #8D9EB2",
"u. c #8BA3A5",
"i. c #8FA3AC",
"p. c #8DA0AE",
"a. c #88A2B9",
"s. c #90A0B0",
"d. c #95A7B5",
/* pixels */
"+ + + + + + + + + + + + + + + + + + + + + + + + + + + + + + + + ",
"& & & & & & & + + + & & & & & & & & & & & & & & & & & & & & & & ",
": 4 =.=.=.=.=.8 5 * / / / / / / / / / / / / / : w z %.7.6.8.: O ",
"+ 2 ..........f 5 # / / / / / / / / / / / / / + 5 k ....%.,.# - ",
"  4 | ` { { { i 5 + / / / / / / / / / / / / / + 5 f [ | -.-.# + ",
"+ 2 ` ` { { { a 5 + / / / / / / / / / / / / / + 5 d { ] -.-.% - ",
"  2 I I I I I l 5 + / / / / / / / / / / / / / + 5 w Q I Q Q # - ",
"+ 2 M V V V ` j 5 + / / / / / / / / / / / / / + 5 y J I V V O   ",
"+ 2 4.4.4.4.<.y 5 + / / / / / / / / / / / / / + 5 a M E 4.4.% + ",
"- 1 5.5.5.5.+.a 5 + / / / / / / / / / / / / / + 5 y J I 4.4.- - ",
"- 1 5.5.5.5.-.y 5 + / / / / / / / / / / / / / + 5 y J I 4.5.- - ",
"- < 5.5.5.5.-.y 5 + / / / / / / / / / / / / / + 5 y J I 4.5.- - ",
"  1 5.5.5.5.-.y 5 + / / / / / / / / / / / / / + 5 y J I 4.O.- - ",
"+ 2 5.5.q.s.@.y 5 + / / / / / / / / / / / / / + 5 0 I V 3.5.- - ",
"+ 2 5.5.0.a.@.u 5 + / / / / / / / / / / / / / + 5 j M Z t.5.- - ",
"+ 2 5.5.y.p.@.9 5 + / / / / / / / / / / / / / + 5 w M Z p.5.- - ",
"+ 1 d.u.5.5.-.w 5 + / / / / / / / / / / / / / + 5 9 J W 4.4.- - ",
"- 4 r.9.5.5.-.j 5 + / / / / / / / / / / / / / + 5 u Z Y 4.4.- - ",
"- 2 w.e.5.5.-.0 5 + / / / / / / / / / / / / / + 5 y M n 4.5.- - ",
"+ 2 5.5.5.5.#.y 5 + / / / / / / / / / / / / / + 5 y J I 4.5.- - ",
"+ 2 4.4.5.5.2.y 5 + / / / / / / / / / / / / / + 5 y J I 4.5.- - ",
"+ 2 4.4.5.5.2.y 5 + / / / / / / / / / / / / / + 5 y J I 4.5.- - ",
"+ 2 5.5.5.5.$.y 5 + / / / / / / / / / / / / / + 5 a n R 4.5.- - ",
"+ 2 5.5.5.5.+.a 5 + / / / / / / / / / / / / / + 5 y J R 4.5.- - ",
"+ 2 -.-.-.-.@.y 5 + / / / / / / / / / / / / / + 5 j ( { -.-.- - ",
"+ 2 -.-.-.-.=.w 5 + / / / / / / / / / / / / / + 5 l ) ` -.-.- - ",
"+ 2 ` ` ` ` ` d 5 + / / / / / / / / / / / / / + 5 a n I ` ` - - ",
"+ 2 ` ` ` ` ` f 5 + / / / / / / / / / / / / / + 5 i D M ` ` - - ",
"- < ~ ~ ^ ^ ^ k 5 + / / / / / / / / / / / / / # 5 f x c ^ ^ - - ",
"* 1 M V V V V z w : / / / / / / / / / / / / / * 5 8 8 0 V V < - ",
"& & & & & & & + + + & & & & & & & & & & & & & & & & & & & & & & ",
"+ + + + + + + + + + + + + + + + + + + + + + + + + + + + + + + + "
};
