/* XPM */
static char * wall[] = {
/* columns rows colors chars-per-pixel */
"32 32 195 2 ",
"   c #1D130F",
".  c #151B0B",
"X  c #1D1F0A",
"o  c #1C1414",
"O  c #1D1B16",
"+  c #1E1A1C",
"@  c #1E121E",
"#  c #280F0C",
"$  c #320E0E",
"%  c #24140D",
"&  c #2C140D",
"*  c #261A0C",
"=  c #2B1A0C",
"-  c #261707",
";  c #30120D",
":  c #32190C",
">  c #371705",
",  c #2C0D1B",
"<  c #2E0F15",
"1  c #251515",
"2  c #291614",
"3  c #251A13",
"4  c #2B1915",
"5  c #24151B",
"6  c #2B141A",
"7  c #241C1A",
"8  c #2B1A19",
"9  c #331413",
"0  c #311C15",
"q  c #32141B",
"w  c #351D1B",
"e  c #3B1C19",
"r  c #391610",
"t  c #1C2012",
"y  c #3C240D",
"u  c #38260A",
"i  c #232114",
"p  c #2D211C",
"a  c #2E2311",
"s  c #3B2416",
"d  c #35241B",
"f  c #3D241B",
"g  c #3C2A1C",
"h  c #382812",
"j  c #313210",
"k  c #1F1A20",
"l  c #241623",
"z  c #241820",
"x  c #2C1925",
"c  c #2A192A",
"v  c #371924",
"b  c #1B2024",
"n  c #3C2422",
"m  c #3B272A",
"M  c #3C2B3D",
"N  c #362A38",
"B  c #541D09",
"V  c #421D14",
"C  c #451F1E",
"Z  c #56191A",
"A  c #781F0F",
"S  c #42230E",
"D  c #51210D",
"F  c #41241C",
"G  c #4A251A",
"H  c #42291E",
"J  c #472616",
"K  c #542916",
"L  c #55391B",
"P  c #7C3C0E",
"I  c #662418",
"U  c #652614",
"Y  c #702110",
"T  c #782E15",
"R  c #422421",
"E  c #4A2C23",
"W  c #482427",
"Q  c #49312F",
"!  c #533229",
"~  c #5E3E2D",
"^  c #5F3922",
"/  c #46353C",
"(  c #5D3D33",
")  c #5A3D3F",
"_  c #45253A",
"`  c #633D2C",
"'  c #6B3D2E",
"]  c #783D2D",
"[  c #633F35",
"{  c #693E35",
"}  c #643E3B",
"|  c #6B3D3B",
" . c #6E3639",
".. c #773D33",
"X. c #74400E",
"o. c #604019",
"O. c #59432C",
"+. c #5D4332",
"@. c #5E403D",
"#. c #634223",
"$. c #64422C",
"%. c #6A422C",
"&. c #6D4627",
"*. c #7E5A2A",
"=. c #634235",
"-. c #6A4332",
";. c #644239",
":. c #69413D",
">. c #71453A",
",. c #392942",
"<. c #4D3141",
"1. c #6C3C44",
"2. c #613E45",
"3. c #5E4748",
"4. c #624749",
"5. c #644656",
"6. c #813707",
"7. c #9D2413",
"8. c #842418",
"9. c #BB2605",
"0. c #8D3B2D",
"q. c #FF1F00",
"w. c #DC3D05",
"e. c #EE2D03",
"r. c #F62700",
"t. c #FE2501",
"y. c #F42C02",
"u. c #FE2B01",
"i. c #FF250D",
"p. c #FF2A09",
"a. c #F52908",
"s. c #F43101",
"d. c #FC3101",
"f. c #F92614",
"g. c #9B4E0A",
"h. c #A74A00",
"j. c #AF5700",
"k. c #BF5E00",
"l. c #BD5C0B",
"z. c #A95C17",
"x. c #B15A17",
"c. c #BE6219",
"v. c #88492A",
"b. c #8A582B",
"n. c #864D33",
"m. c #985D33",
"M. c #AA5B20",
"N. c #84622A",
"B. c #8D6A39",
"V. c #AE602F",
"C. c #CC5F0C",
"Z. c #FE4402",
"A. c #FD4C00",
"S. c #FB5201",
"D. c #FF5B00",
"F. c #FC471A",
"G. c #D86E0A",
"H. c #C3621D",
"J. c #FE6101",
"K. c #FD6B03",
"L. c #E87A05",
"P. c #FE7502",
"I. c #F47B01",
"U. c #FE7B01",
"Y. c #FE7B0B",
"T. c #F67A06",
"R. c #F47D11",
"E. c #FD7F10",
"W. c #CA7629",
"Q. c #D27B2C",
"!. c #DD7334",
"~. c #E2772F",
"^. c #EE8300",
"/. c #F28403",
"(. c #FD8201",
"). c #F3A21B",
"_. c #C3913C",
"`. c #FC9F29",
"'. c #FBA12F",
"]. c #FEAE3D",
"[. c #F8BD3D",
"{. c #CE8B44",
"}. c #FFAE48",
"|. c #FCBC42",
" X c #FFB74C",
".X c #FDBD4C",
"XX c #F4BE44",
"oX c #FEB651",
"OX c #FFBD52",
"+X c #F6BC59",
"@X c #FBB861",
"#X c #FFC14D",
"$X c #FFC748",
"%X c #FFC352",
"&X c #FFC15E",
/* pixels */
",.> t.u.u.u.u.u.K.L.%.+.1 4 f.u.u.u.t.u.2 4 @.-.+X).U.Y.;.[ W K ",
"N * u.s.e.u.d.u.U./.| ;.x X t.u.t.p.y.t.9 3 } ~ &X`.I.Y. .=.R I ",
"M   > 3 y.p.r.y.>.&.+ 5 & q y.y.-...(.R.% - : x %.' $.:.q q 3 B ",
"_ 6 $ 3 t.t.y.i.{ ( 3 O 6 r e.a.-.1.P.P.8 r 5 , ) =.} ~ o % @ B ",
"N 5 1 3 (.P.H.' n F 2 2 u.u.| ' | +.n f P.U.] -.s p 4 3 u.s.> Z ",
"N 2 6 1 (.P.c.3.n f 2 2 u.u.;.;.;.=.F f I.U.;.;.F e 1 2 u.u.2 Z ",
"V.C.6 7 n.n.x.G.3 8 2 2 ..0.:.=.E E F f (.P.E E 4 2 1 2 u.y.9.w.",
"W.L.* & ;.;.z.U.3 c 6 6 -.=.;.[ F R u v T.(.W R + 7 8 , t.u.e.Z.",
"5.^ ` ;.F H B. Xs H d.y.;.{ e d 2 1 r 3 v E P.U.* q o * U.Y.%.b.",
"5.-.;.[ f R N.&Xe u u.u.' 2.h f 2 8 1 z y h ^.I.x # w b P.U.=.v.",
"/ F f f f f F F .X|.P.U.s f 2 2 2 % 7 = * & u.t.* h.Y.R.$.;.=.v.",
"/ f f f f f f D #X%XU.U.g f 2 2 2 2 % 4 * & u.u.1 g.I./.} [ ( v.",
"/ F f F f f w 6 % 2 E.U.7 2 1 2 2 7 OX.XU.U.u.u.U.M.4.[ %.[ s U ",
"/ F f F f f w 6 2 ; Y.P.7 8 1 2 2 i #XOX(.U.p.u.Y.x.[ $.@.( s U ",
"<.f 2 1 1 1 2 2 2 8 k 2 (.U.oXOXOX[.( | n h U.(.XXb.+ 4 s f g I ",
"<.f 1 2 2 2 2 2 4 % % 7 T.T.$X.X.X$X=.| S m (.I..X*.= o y f f I ",
"M a 8 3 3 3 2 1 2 3 3 3 r.u.=.[ [ =.f f d R l < u.D.U.I.3 % 1 K ",
"N o 1 2 2 2 2 4 2 3 3 3 q.u.@.[ [ [ f f V f q 6 t.S.P.I.5 3 2 K ",
"M & |.OXOXOX'.Y.t.u.u.u.{ ;.V F F f F f : . p.u.P.S.p.u.O % 2 L ",
",.6 oXOX.X.X`.Y.u.u.u.u.| [ j f f f F f 9 p u.u./.S.u.t.- % 2 L ",
"!.Y.} =.=.=.$.+.t.u.u.u.s n 3 1 1 3 2 1 2 6 r.u.s g S m .X.X.X].",
"Q.U.1.[ [ [ ` #.t.u.u.u.d n 2 2 2 4 2 3 4 . u.u.y F F u oXoXOX}.",
"3.| ;.;.;.;.! f F C u.t.c 5 v 2 2 & z q t.t.g f f f R g U.I.U.K.",
"4.| =.;.;.;.! f f F u.p.q 6   2 2 + 7 7 u.t.F f f f f f U.I.U.K.",
"/ R E E E E H F f d 8.T k.l.3 2 2 8 9.9.J.J.J f f f F g A.A.P.K.",
"Q p G F f f d F d f f f P.U.4 2 2 2 t.r.I.I.G s F d f d d.d.P.I.",
"~.T.6 2 4 4 4 f 2 2 2 2 U.U.6 2 2 O U.U.= # 3 3 d 0 2 o (.U.u.F.",
"W.U.9 ; 2 1 0 f 2 2 2 2 U.P.9 * * 3 (.Y.1 0 = 2 s 0 2 1 U.U.p.F.",
"!.P.t.a.5 t 9 % 6 2 : 7 i.i.u.u.P.^.q l 2 2 2 % 1 d G u %X@XH o.",
"Q.U.u.u.5 q 6 O 2 i 7 8 u.u.t.u.U.U.7 4 2 2 2 8 * 0 S n .X Xg %.",
"m.j.Z.Z.A Y D 3 9 o P 6.u.u.A.A.U.U.X.6.2 2 2 8 * #.N.b.{._.h ` ",
"<.K P.U.u.u.7.% z = T.U.t.s.P.U.U.U.P.P.3 3 3 5 % B.OX|.` ;.g O."
};
