/* XPM */
static char * player_exit[] = {
/* columns rows colors chars-per-pixel */
"32 32 208 2 ",
"   c #030201",
".  c #040107",
"X  c #1F1F1D",
"o  c #380C0D",
"O  c #3A110D",
"+  c #3A0E14",
"@  c #3D1313",
"#  c #3E1118",
"$  c #261C1D",
"%  c #2F2212",
"&  c #1F1E26",
"*  c #1E1D2A",
"=  c #211E27",
"-  c #201E2B",
";  c #3C1F31",
":  c #202020",
">  c #22212A",
",  c #272530",
"<  c #292631",
"1  c #3C3B3C",
"2  c #383A38",
"3  c #312A20",
"4  c #4B190A",
"5  c #511C0D",
"6  c #411112",
"7  c #47161A",
"8  c #4D161A",
"9  c #5D250B",
"0  c #5C2414",
"q  c #5E2418",
"w  c #5D281A",
"e  c #582616",
"r  c #64260E",
"t  c #642914",
"y  c #652617",
"u  c #74341C",
"i  c #421B30",
"p  c #423E3C",
"a  c #483B34",
"s  c #4F332E",
"d  c #783620",
"f  c #3E403F",
"g  c #7B5308",
"h  c #6A461A",
"j  c #694717",
"k  c #7C4D0F",
"l  c #4A4337",
"z  c #49402F",
"x  c #73512A",
"c  c #3D3C42",
"v  c #483946",
"b  c #413E51",
"n  c #3E474C",
"m  c #444443",
"M  c #4D4D4D",
"N  c #47434A",
"B  c #434153",
"V  c #504845",
"C  c #675E5D",
"Z  c #6D5048",
"A  c #62635D",
"S  c #626552",
"D  c #7C6C5A",
"F  c #786449",
"G  c #55566A",
"H  c #56596D",
"J  c #5B5B6F",
"K  c #5C5B61",
"L  c #575C70",
"P  c #5A5D72",
"I  c #4B476B",
"U  c #5D6264",
"Y  c #5B6174",
"T  c #5F6678",
"R  c #4B6562",
"E  c #626261",
"W  c #6C6B6B",
"Q  c #6A6768",
"!  c #76766A",
"~  c #626A7B",
"^  c #606478",
"/  c #6D7674",
"(  c #757575",
")  c #797A75",
"_  c #76767B",
"`  c #78777D",
"'  c #797979",
"]  c #787776",
"[  c #6F766F",
"{  c #883E19",
"}  c #844C03",
"|  c #8A4D05",
" . c #854E0C",
".. c #894E0D",
"X. c #855102",
"o. c #895003",
"O. c #83510C",
"+. c #89550A",
"@. c #8B441F",
"#. c #89481B",
"$. c #834A17",
"%. c #865419",
"&. c #98520D",
"*. c #A05B18",
"=. c #AB6616",
"-. c #8D4523",
";. c #8D4923",
":. c #884828",
">. c #914724",
",. c #914A25",
"<. c #94492B",
"1. c #815B2B",
"2. c #835C32",
"3. c #9A6632",
"4. c #AB6D29",
"5. c #B56A27",
"6. c #A7753B",
"7. c #B47E39",
"8. c #AB7237",
"9. c #C77B18",
"0. c #C67A28",
"q. c #C07534",
"w. c #9F6E4D",
"e. c #876753",
"r. c #997259",
"t. c #906E4F",
"y. c #AE7848",
"u. c #B97B4F",
"i. c #B67A49",
"p. c #A97D56",
"a. c #B47C52",
"s. c #B57C58",
"d. c #B97B54",
"f. c #887665",
"g. c #807379",
"h. c #AC7D73",
"j. c #C17953",
"k. c #6D807E",
"l. c #CA8617",
"z. c #D5831B",
"x. c #DA831A",
"c. c #DB8311",
"v. c #D98509",
"b. c #E18200",
"n. c #E18018",
"m. c #D78221",
"M. c #D38231",
"N. c #B6834D",
"B. c #B98453",
"V. c #C4865F",
"C. c #C79668",
"Z. c #DEA677",
"A. c #DDA979",
"S. c #D4A973",
"D. c #D7A26E",
"F. c #E2AE74",
"G. c #5F7283",
"H. c #666F82",
"J. c #6A6F82",
"K. c #6B7385",
"L. c #6D7689",
"P. c #697588",
"I. c #72778B",
"U. c #7A869A",
"Y. c #7C8A9C",
"T. c #768395",
"R. c #7C84A3",
"E. c #00A2E8",
"W. c #5B96E8",
"Q. c #5994FA",
"!. c #668EED",
"~. c #6F8CEA",
"^. c #6191ED",
"/. c #6990ED",
"(. c #668DF6",
"). c #73FBFD",
"_. c #878787",
"`. c #80889B",
"'. c #939393",
"]. c gray61",
"[. c #8494A4",
"{. c #8B9DAD",
"}. c #8598A9",
"|. c #828DA1",
" X c #8CA0AF",
".X c #8CA2B1",
"XX c #ABABAB",
"oX c #DDB883",
"OX c #DBB48A",
"+X c #E8BC91",
"@X c #D7B9A1",
"#X c #DBC492",
"$X c #EED89D",
"%X c #F7DB9D",
"&X c #EDCB96",
"*X c #FBE09B",
"=X c #D5C9A3",
"-X c #DBC4B2",
";X c #FCDCA4",
":X c #FCDCAB",
">X c #F4DBAD",
",X c #FFDEB1",
"<X c #FDE2A5",
"1X c #FFE8A7",
"2X c #FCE1A9",
"3X c #F7E0AE",
"4X c #FDE2B1",
"5X c #F8E3B5",
/* pixels */
"= = = = = = = = = = = = = = = = = = = = = = = = = = = = = = = = ",
": : : : : : = : : : : i o 6 @ @ @ @ @ @ @ 7 : : = & : : : : : : ",
"> < B ~ {.{.L.U.v 6 o e t <.-.0 y w y y q 9 o 6 i Y.{.{.I.K.> * ",
"= , B T [.[.Y L.v + @ e r ,.>.q w w 0 q w q O 7 ; I.[.[.^ ^ - > ",
"& < B Y Y.Y.O 7 8 0 q @.,.-.,.>.-.u r ;.,.;.0 e 0 K.Y.U.P P - = ",
"= , b Y Y.`.4 # 8 q w -.,.<.>.-.,.u t ;.,.#.0 w 0 K.Y.Y.P P - > ",
"& , b H L.I.# 6 5 t t :.@.@.@.;.<.u r -.>.,.q t 0 P L.L.H H - > ",
"= , B G H.K.# 6 d >.>.;.{ ,.-.@.>.;.>.>.>.#.<.<.:.J K.H.H L * & ",
"= , B Y Y.Y.# 6 5 t 0 +X:X,.<.,.@.C.2X2X;X;Xe r e E.R.U.Y P - = ",
"> > B Y Y.U.+ @ 5 e 0 OX>X#.<.;.-.C.<X4X<X5X9 w 5 E.T.Y.P L > > ",
"> > B Y p.S.<X*X2X2X,X%     >X:X:X;X3X.     4X;X4XB.a.Y.P P > > ",
"> > B Y p.S.2X<X%X%X1X3 .   >X2X:X;X$X.     <X%X4XN.u.Y.P P > > ",
"& > B Y Y.Y.s.a.+X:X<X$     D.Z.Z.Z.OX      4X;X&XR.[.}.Y P > > ",
"= , b T }.}.j.a.oX:X4XX     F.A.A.A.oX  .   5X:X$XE.}. XP P > > ",
"= , b ~ .X X#.+.y.V.B.@X=X%X%X;X;X;X<X=X#X-XB.d.N.E.{. XP P > > ",
"= , B ~ .X.XX.| 6.d.a.&X2X2X2X2X2X2X2X2X2X:Xs.y.y.E.{..XP P > > ",
"= > B ~ ' ' ] _ ' ' g.h.a.a.a.a.a.a.a.a.a.N...} *.).Y.U.P P > > ",
"> < B ( ( ' ' ( [ g.k.p.u.i.u.u.u.u.a.s.s.u. ...=.).Y.Y.P P > > ",
"> ' _ XX' W E E 6.x.l.&.$.| | O.O.O.| O. .%.z.l.q.).U.Y.P P > > ",
"= ' ( XX' W E E 8.v.c.&.X.X. ....... .| o.| m.l.M.).Y.Y.L P > > ",
"= ` ' ' XX'.] ' 1.} o.9.m.~.Q.^.^.^.W.M.m.x.X. .%.4.4.o...X.> > ",
"= ` ' ' XX'.( ( 1.O.X.l.b.W./.!.!./.(.n.x.z.g X.x 5.5.X.g g > > ",
"= ` ' M _._.].].C a a F t.r.w.B.B.a.w.e.D e.a a V e.! [.L H > > ",
"= ` ' 1 ( '.XXXXQ 1 c K E 5.5.x.z.0.5.A C A 1 2 m ( (  XL L > > ",
"= ` ) m .X.XK.U.l 2 2 W H.v n p p 1 m G.( ] f 2 2 U.U.Y.P P > > ",
"= I._ m {..XJ.U.z z z D r.N N 1 1 v m f.f.f.l l p Y.|.Y.P P > > ",
"= , B Y U.U.J H.2.X...9.c.A U 2 1 M U x.n.x.| } $.K.`.Y.P P > > ",
"= , B Y U.Y.J H.2.X...9.z.U C 2 1 M C z.z.x.O.X.k K.`.Y.P P > > ",
"> > B Y U.T.G ~ I 1 1 Q [ S R 2 1 M P [ ] / a 1 1 H.T.U.G G > > ",
"> > b G K.K.B H I 1 1 W [ U U 2 1 M U ( ( / 1 1 p P H.K.B B > > ",
"= = = = = = = = Z j j 6.7.3.3.h h 1.3.7.7.y.h h h = = = = = = = ",
": : : : : : : : x +.} 9.m.5.5. . .*.5.z.x.z.O.g $.: : : : : : : "
};
