/* XPM */
static char * space[] = {
/* columns rows colors chars-per-pixel */
"32 32 106 2 ",
"   c #535351",
".  c #4C4C4A",
"X  c #444442",
"o  c #434341",
"O  c #424240",
"+  c #6E6E6C",
"@  c #7D7D7B",
"#  c #7E7E7C",
"$  c #6B6B69",
"%  c #6C6C6A",
"&  c #6D6D6B",
"*  c #4E4E4C",
"=  c #525250",
"-  c #50504E",
";  c #7F7F7D",
":  c #686866",
">  c #51514F",
",  c #7F7F81",
"<  c #777779",
"1  c #6D6D6F",
"2  c #6F6F71",
"3  c #525254",
"4  c #4E4E50",
"5  c #424244",
"6  c #434345",
"7  c #454547",
"8  c #444446",
"9  c #515153",
"0  c #4F4F51",
"q  c #464648",
"w  c #7D7D7F",
"e  c #818183",
"r  c #6E6E70",
"t  c #707072",
"y  c #5F5F61",
"u  c #7C7C7C",
"i  c #777777",
"p  c gray43",
"a  c #6D6D6D",
"s  c #6F6F6F",
"d  c #505050",
"f  c gray31",
"g  c gray28",
"h  c #434343",
"j  c gray27",
"k  c #444444",
"l  c #484848",
"z  c gray32",
"x  c #494949",
"c  c #464646",
"v  c #7E7E7E",
"b  c #808080",
"n  c #5A5A5A",
"m  c #767676",
"M  c gray44",
"N  c gray29",
"B  c gray26",
"V  c gray25",
"C  c #414141",
"Z  c #535353",
"A  c #515151",
"S  c #555555",
"D  c #7B7B7B",
"F  c gray50",
"G  c gray33",
"H  c #818181",
"J  c #727272",
"K  c #6C6C6C",
"L  c DimGray",
"P  c #717171",
"I  c #676767",
"U  c gray42",
"Y  c gray51",
"T  c #4E4E4E",
"R  c #626262",
"E  c #606060",
"W  c #4B4B4B",
"Q  c #6A6A6A",
"!  c gray30",
"~  c gray48",
"^  c gray49",
"/  c #5D5D5D",
"(  c #797979",
")  c gray46",
"_  c #3F3F3F",
"`  c #838383",
"'  c #565656",
"]  c gray38",
"[  c gray34",
"{  c #4C4C4C",
"}  c gray45",
"|  c gray37",
" . c gray39",
".. c gray35",
"X. c #656565",
"o. c #5F5F5F",
"O. c gray36",
"+. c gray47",
"@. c gray40",
"#. c #646464",
"$. c #5B5B5B",
"%. c #747474",
"&. c #686868",
"*. c #3E3E3E",
"=. c gray52",
"-. c #585858",
/* pixels */
"  . X X X X o O X O + + @ # $ % + % & + * = X o . - * - # ; : > ",
", < 1 2 2 2 3 4 5 6 7 8 8 6 7 5 3 9 0 9 q 5 9 9 6 8 w e r t y q ",
"u i p a s a d f g h h j k j j l z d z z h k d d x c v b p p n g ",
"v m s M s s d N g B k h V C c l z Z A A g j A S x h D F a p n h ",
"M s s s G A k c p p H F f z v D s s p a a p g j J b a a k C S p ",
"K K K L A d l d M p u D z S D D s a p P I a j h M D M a c g S U ",
"A A A f c c Y u v F a s f A a K F b s p T T g k R U p a M s E f ",
"k k k B h k D F U s K p k h T d z z d Z h h c j W A Q U d T T C ",
"h h h j h C v D p K a U V h A d d d ! A j h h h f Z a a f z l l ",
"h h h j c h v ~ s p p a h j f A A A S A k h h h l T s a d d l k ",
"v v v F S Z K a K p A z h k j k k k F u ^ v v v f C d f h C / v ",
"^ ^ F v z A J Q p s A A C B h B k k ( u ^ F v F d j T G j c E v ",
"u ) U U P J Z Z _ k h k h V b v ^ ^ b ~ F v p M S Z k B ` H i s ",
"' ] p s [ G j { u i i i I U J M v F J } F H G G f d C k M J R A ",
"A | p a z z h g b ^ ^ F K a a M ^ v p M v u G z A d h C M s | Z ",
"f / M a T f k x v b F ^ a Q a p ^ u M M F u d Z A f h _ P M  .z ",
"B h k C k h b u s a F ^ a a ^ F z d T A A d A d A d h j j k { A ",
"C j h k k h ^ ~ K a F F a J ` D f d z d z A z d G f g j j j T f ",
"C [ a p F H p J v v s P d f B C h k B k L s g h k j C c j j n u ",
"! z ..S ) ) K Q X.I o./ x T O./  .R | n +.) @.X.f { E #.O.n / X.",
"A ! k V p s p U z A A A B h Q M v ^ U M u v v ^ n A ^ u a a | d ",
"z { h h M p K L ! A A A k j P K b H M a v v F v $.Z v F a p o.f ",
"j k c k d A Z A d A A A a p ^ D p M b u v H s p { k s M b ^ +.J ",
"k k k h Z S A G z z z z K K D ~ s J u F v u J P { B s a v F m a ",
"j j j B c j s I l j j j j c U Q b ` ^ v P s z z T d j V v Y m a ",
"c c c g k j K %.! ! ! ! B B @.&.} J J %.@.&.z A d A f T ( ^ P X.",
"A A A G k h F D a s p M h h j j d Z A A A A A d g h F u K p | j ",
"A A A z h k ^ D p K s a k C B C Z d z z z z z f j k ^ F K p $.B ",
"p p p p H ^ U J ^ v { d j h Y b B B k k k *.M M P s K M b v ) p ",
"K K K K b F s %.H u T f j c =.F B j C B j B p a P Q a p F v m P ",
"K } +.+.n -./ | #.] x x I &.+.%.| ] $.O.W W G A s ( ) ( R E E | ",
"p +.v D k c A A A A k j u u P } a U p s A f x k s F F F G Z G z "
};
