/* XPM */
static char *_d95e07c85584e6dbe3d81e6bfddd23fGMAAFVzx7ziyhGGr[] = {
/* columns rows colors chars-per-pixel */
"32 32 174 2 ",
"   c #340B09",
".  c #3D0C0F",
"X  c #3E1001",
"o  c #3D140C",
"O  c #36150C",
"+  c #3C0C14",
"@  c #350E1F",
"#  c #341215",
"$  c #3D1214",
"%  c #3C141A",
"&  c #3C1724",
"*  c #3B2235",
"=  c #373B36",
"-  c #3A3A36",
";  c #343A3B",
":  c #3B3B3C",
">  c gray21",
",  c #38382C",
"<  c #4C1C0F",
"1  c #411214",
"2  c #4F1B10",
"3  c #411718",
"4  c #4C1C18",
"5  c #4A1618",
"6  c #541E12",
"7  c #5A1E13",
"8  c #531F1A",
"9  c #5B1A17",
"0  c #56220C",
"q  c #5B240D",
"w  c #5E2E08",
"e  c #5E3203",
"r  c #4F2018",
"t  c #562717",
"y  c #5C2515",
"u  c #572814",
"i  c #5D261B",
"p  c #5E2919",
"a  c #5B2815",
"s  c #612E0F",
"d  c #612513",
"f  c #602419",
"g  c #421625",
"h  c #413C28",
"j  c #442433",
"k  c #433A34",
"l  c #433D38",
"z  c #7F3F24",
"x  c #7D3C28",
"c  c #753E20",
"v  c #364038",
"b  c #72450E",
"n  c #7C5301",
"m  c #784916",
"M  c #7D561F",
"N  c #434037",
"B  c #64463B",
"V  c #73503D",
"C  c #363942",
"Z  c #3D3C42",
"A  c #482F44",
"S  c #433946",
"D  c #3E4442",
"F  c #444444",
"G  c #42424B",
"H  c #4D4D4C",
"J  c #5D4847",
"K  c #50504E",
"L  c #4E4E50",
"P  c #525252",
"I  c #5C5C5C",
"U  c #605758",
"Y  c #625F56",
"T  c #5D685A",
"R  c #64614E",
"E  c #63635D",
"W  c #5F5F61",
"Q  c #626262",
"!  c #686866",
"~  c #6D6D6D",
"^  c #75736F",
"/  c #73796F",
"(  c #6F6F71",
")  c #6A6C79",
"_  c #687478",
"`  c #737373",
"'  c #767970",
"]  c #7A7977",
"[  c #76777A",
"{  c #77787A",
"}  c #7C7C7C",
"|  c #79777A",
" . c #8E3F1E",
".. c #8C3F23",
"X. c #844D04",
"o. c #8A4D04",
"O. c #8B4708",
"+. c #854C0B",
"@. c #8B4C0D",
"#. c #865204",
"$. c #885101",
"%. c #87510C",
"&. c #874410",
"*. c #8B4E12",
"=. c #8D451B",
"-. c #91481E",
";. c #845214",
":. c #8D5011",
">. c #AD681B",
",. c #B66A1C",
"<. c #B76918",
"1. c #8C4624",
"2. c #8E4923",
"3. c #87452B",
"4. c #8C4729",
"5. c #8F482A",
"6. c #854320",
"7. c #904723",
"8. c #924925",
"9. c #94462C",
"0. c #91492A",
"q. c #865729",
"w. c #84592E",
"e. c #986031",
"r. c #9D763B",
"t. c #B36623",
"y. c #B46B24",
"u. c #BB6B24",
"i. c #BC662B",
"p. c #BA6B29",
"a. c #B1672A",
"s. c #AF792F",
"d. c #AA7623",
"f. c #A36B3C",
"g. c #A26B35",
"h. c #B97630",
"j. c #B47830",
"k. c #C06924",
"l. c #AB7044",
"z. c #BB7C50",
"x. c #BF8134",
"c. c #D48416",
"v. c #DB8214",
"b. c #D48914",
"n. c #D4841C",
"m. c #DA841C",
"M. c #D88818",
"N. c #C88220",
"B. c #D38322",
"V. c #D88321",
"C. c #C48437",
"Z. c #B89048",
"A. c #FBBF47",
"S. c #FDBE4C",
"D. c #FFBE5A",
"F. c #F7BE53",
"G. c #F9C14E",
"H. c #F7C34B",
"J. c #F6C451",
"K. c #FEC157",
"L. c #FFC058",
"P. c #767887",
"I. c #7F7F81",
"U. c #818181",
"Y. c #818181",
"T. c #9D9D9D",
"R. c #A19D9A",
"E. c #99A39B",
"W. c #ACA8A5",
"Q. c #B3A8AE",
"!. c #E9BB87",
"~. c #FAD79D",
"^. c #FFDCA3",
"/. c #FDE3A6",
/* pixels */
"P H F F F F F F F F ~ ~ } } ! ~ ~ ~ ~ ~ H P F F H K H K } Z.! P ",
"I.{ ~ ( ( ( P L F F F o $ $ $ $ $ + $ $ O F P P F F } Y.( ` W F ",
"} [ ~ ~ ~ ~ P H F   o y y y y q d 8.1.f i $ $ P F F } Y.~ ~ I F ",
"} [ ~ ` ~ ~ P F F & 1 t p p d y y 5.3.y i $   P F F } } ~ ~ I F ",
"` ~ ~ ~ P P F F ~ & 1 t p p d y y 5.3.y i $   F ` Y.~ ~ F F P ~ ",
"~ ~ ~ ! P P F & # i p 1.4.p y 4.4.8.8.5.=.i y @ A } ` ~ F F P ! ",
"P P P H F F Y.$ O y p 1.8.y q 7.1.8.1.1.0.i 7 % A ~ ~ ~ ` ~ Q H ",
"F F F F F F } $ O y p 1.8.y q 7.1.8.1.1.0.i 7 % A P ! ! P H H F ",
"F F F F F F } o 1 4.8.8.7.7.7.7.7.7.7.7.2.7.-.$ j P ~ ~ H P F F ",
"F F F F F F } # 5 6.=.-.7.7.7.7.7.7.7.7.8...0.% * H ~ ~ P P F F ",
"} } } } P @ 3 /.~.1.1. .7.7.7.7.7.7.7.7.0.9.9.^.!.l.z.K F F I } ",
"} } } } P P ` % 1 q d 4.7.7.7.7.7.7.7.7.5.9 d . J E.Q./ P.F Q } ",
"} [ ! ! ` ` P o $ p y 8.7.7.7.7.7.7.7.7.2.a y o B W.Q.| { Y.[ ~ ",
"P Q ~ ~ P P F q 7 < r z z z z z z z z z x 8 8 0 V R.T.) ) ` Q P ",
"P I ~ ~ P P F q 7 < r z z z z z z z z z x 8 8 0 V R.T.) ) ~ I P ",
"H I ` ~ H H F X.*.X $ i y y y y y y y y u + g @.w.] ' : ` ` Q P ",
"F F F F F F Y.C.x.w w 4 6 2 6 4 4 4 < < 9 s e C.r.U I F F F H P ",
"F F F F F : : G.D.#.$.$ $ $ $ $ $ $ $ $ $ @.&.L.Z.Z Z F F F H H ",
"F P ~ v , R Q ` [ n.m.X.+.p.y.c.n.,.y.+.X.c.v.` ! I E - = F I } ",
"H P I D = Y I ` ` c.v.$.+.p.y.c.n.p.y.+.o.M.M.[ ~ Q T : - I I Q ",
"P H F +.;.l > ` [ o.@.t.,.m.c.G.S.n.V.y.a.+.+.` I : : n M ~ I P ",
"P H F *.@.k : ` ` X.%.u.,.m.c.H.A.m.V.y.t.+.*.` I : : X.;.~ I H ",
"F F F l : ; : Q I X.#.%.o.<.<.c.n.,.<.o.:.@.@.Q ~ } _ : N } } ` ",
"F F F F P : - - - : Z ,.<.m.m.F.L.V.v.u.y.: : : K } [ ~ } } [ ~ ",
"F F F F F G Z - : ; : y.i.B.b.J.G.m.N.k.>.S - Z P ] } F } Y.[ ~ ",
"F F F F F G Z - : ; : y.i.B.b.J.G.m.N.k.>.S - Z P ] } H } } ` Q ",
"P P P P F F } } ~ C : +.+.Z : ; ; ; h O.o.Z : P F } } } ~ ~ I F ",
"P P P P F F } } ~ C : +.+.Z : ; ; ; h O.o.Z : H F } } } ~ ~ I F ",
"~ ~ ~ ~ Y.} ! ` } : ; _ ^ E Q : : Q E ^ ` : - ` ` ~ ~ ` Y.} [ ~ ",
"~ ~ ~ ~ Y.} ~ [ Y.; - ^ ` Q Q : : Q E _ { k : ~ ` ! ~ ~ } } [ ` ",
"~ ` } } I I I I Q m m s.j.f.f.w.q.e.g.h.d.b c P ~ } [ } Q Q Q I ",
"~ } } } F F P P P P F F } } ` ` ~ ! ~ ~ P H F F ~ } } } P P P P "
};
